<?xml version="1.0" standalone="no"?>
<!DOCTYPE svg PUBLIC "-//W3C//DTD SVG 20010904//EN"
 "http://www.w3.org/TR/2001/REC-SVG-20010904/DTD/svg10.dtd">
<svg version="1.0" xmlns="http://www.w3.org/2000/svg"
 width="225.000000pt" height="225.000000pt" viewBox="0 0 225.000000 225.000000"
 preserveAspectRatio="xMidYMid meet">

<g transform="translate(0.000000,225.000000) scale(0.100000,-0.100000)"
fill="#000000" stroke="none">
<path d="M1330 1277 c0 -7 5 -18 11 -24 7 -7 -10 -51 -60 -152 -70 -138 -71
-141 -46 -141 22 0 32 14 81 111 30 61 58 108 62 104 4 -3 29 -52 57 -108 39
-79 56 -103 73 -105 12 -2 22 -1 22 2 0 4 -36 78 -80 166 -63 126 -84 160
-100 160 -11 0 -20 -6 -20 -13z"/>
<path d="M2008 1282 c-15 -3 -18 -15 -18 -78 0 -41 -3 -74 -7 -74 -5 0 -66 34
-138 75 -71 41 -133 75 -137 75 -5 0 -8 -72 -8 -160 l0 -160 25 0 25 0 0 120
c0 66 3 120 8 119 4 0 57 -28 117 -62 l110 -63 3 -57 c3 -49 6 -57 22 -57 17
0 20 7 20 47 0 37 3 44 12 35 18 -18 28 -14 28 11 0 12 -9 28 -20 34 -16 11
-20 26 -22 106 -3 82 -5 92 -20 89z"/>
<path d="M220 1186 c0 -86 -2 -95 -20 -101 -13 -4 -20 -15 -20 -31 0 -26 9
-31 28 -12 9 9 12 2 12 -35 0 -42 2 -47 23 -47 21 0 22 4 19 55 -4 50 -2 56
21 66 22 10 35 6 104 -32 43 -23 94 -53 113 -66 43 -29 50 -29 50 1 0 19 -17
33 -95 77 -52 30 -95 56 -95 60 0 3 43 30 95 58 81 45 95 57 95 78 0 32 0 32
-150 -57 -65 -38 -123 -70 -129 -70 -7 0 -11 29 -11 75 0 68 -2 75 -20 75 -19
0 -20 -7 -20 -94z"/>
<path d="M810 1261 c-53 -27 -82 -84 -77 -149 7 -93 65 -147 157 -147 66 0 99
18 138 76 31 44 28 129 -6 176 -43 61 -142 82 -212 44z m140 -37 c54 -32 75
-100 47 -154 -16 -32 -73 -70 -106 -70 -56 0 -121 65 -121 120 0 35 28 84 58
102 34 22 86 23 122 2z"/>
</g>
</svg>
